# xmcd
#
# Track frame offsets:
#	150
#	13221
#	27972
#	40006
#	57397
#	67601
#	79834
#	98076
#	111939
#	124384
#	140264
#	165810
#	182067
#	198703
#	214186
#
# Disc length: 3059 seconds
#
# Revision: 1
# Processed by: cddbd v1.5.2PL0 Copyright (c) Steve Scherf et al.
# Submitted via: audiograbber 1.83.01
#
DISCID=ca0bf10f
DTITLE=JORGE DE ALTINHO - DOIS EUS
DYEAR=1900
DGENRE=FORRÓ
TTITLE0=QUEM PROVAR DO MEU AMOR
TTITLE1=A VOLTA
TTITLE2=SE LEMBRE DE MIM
TTITLE3=CHORA CORAÇÃO
TTITLE4=MEU EX AMOR
TTITLE5=EI VOCÊ
TTITLE6=CHUVA DE VERÃO
TTITLE7=EU SEI
TTITLE8=VOCÊ NÃO SERVE PRA MIM
TTITLE9=EU SÓ QUERO UM XODÓ
TTITLE10=NÃO CHORE MAIS(NO WOMAN NO CRAY)
TTITLE11=O TEU SORRISO
TTITLE12=EU JÁ NEM SEI
TTITLE13=NAQUELA NOITE
TTITLE14=EU NÃO VOU DEIXAR VOCÊ TÃO SÓ
EXTD=
EXTT0=
EXTT1=
EXTT2=
EXTT3=
EXTT4=
EXTT5=
EXTT6=
EXTT7=
EXTT8=
EXTT9=
EXTT10=
EXTT11=
EXTT12=
EXTT13=
EXTT14=
PLAYORDER=
